<svg width="48" height="48" viewBox="0 0 48 48" fill="none" xmlns="http://www.w3.org/2000/svg">
<g id="iconamoon:arrow-bottom-left-6-circle-fill" clip-path="url(#clip0_3188_10331)">
<path id="Vector" fill-rule="evenodd" clip-rule="evenodd" d="M33.3577 33.3562C27.9392 38.7747 19.1546 38.7747 13.7361 33.3562C8.31758 27.9377 8.31758 19.1531 13.7361 13.7346C19.1546 8.31612 27.9392 8.31612 33.3577 13.7346C38.7762 19.1531 38.7762 27.9377 33.3577 33.3562ZM28.4523 24.5265C28.7125 24.2663 28.8586 23.9134 28.8586 23.5454C28.8586 23.1774 28.7125 22.8245 28.4523 22.5643L24.528 18.64C24.2678 18.3798 23.9149 18.2336 23.5469 18.2336C23.1789 18.2336 22.826 18.3798 22.5658 18.64C22.3056 18.9002 22.1594 19.2531 22.1594 19.6211C22.1594 19.9891 22.3056 20.342 22.5658 20.6022L25.509 23.5454L22.5658 26.4886C22.3056 26.7488 22.1594 27.1017 22.1594 27.4697C22.1594 27.8377 22.3056 28.1906 22.5658 28.4508C22.826 28.711 23.1789 28.8572 23.5469 28.8572C23.9149 28.8572 24.2678 28.711 24.528 28.4508L28.4523 24.5265Z" fill="#D79FCC"/>
</g>
<defs>
<clipPath id="clip0_3188_10331">
<rect width="33.2989" height="33.2989" fill="white" transform="translate(23.5469 47.0918) rotate(-135)"/>
</clipPath>
</defs>
</svg>
